<?xml version="1.0" standalone="no"?>
<!DOCTYPE svg PUBLIC "-//W3C//DTD SVG 20010904//EN"
 "http://www.w3.org/TR/2001/REC-SVG-20010904/DTD/svg10.dtd">
<svg version="1.0" xmlns="http://www.w3.org/2000/svg"
 width="512.000000pt" height="512.000000pt" viewBox="0 0 512.000000 512.000000"
 preserveAspectRatio="xMidYMid meet">

<g transform="translate(0.000000,512.000000) scale(0.100000,-0.100000)"
fill="white" stroke="none">
<path d="M10 2560 l0 -2550 2550 0 2550 0 0 2550 0 2550 -2550 0 -2550 0 0
-2550z m1877 1699 c132 -64 233 -262 233 -459 0 -193 -96 -382 -228 -449 l-42
-21 0 -250 0 -250 718 0 719 0 6 158 c4 86 7 196 7 243 l0 86 -42 19 c-61 27
-127 91 -154 149 -24 49 -24 54 -24 411 0 267 3 363 12 372 17 17 48 15 70 -5
17 -15 18 -37 18 -293 l0 -277 25 -11 c35 -16 70 -15 105 3 l30 16 0 277 c0
292 1 302 45 302 43 0 45 -10 45 -293 0 -162 4 -276 10 -287 13 -25 72 -36
110 -20 l30 12 0 276 c0 242 2 278 17 294 18 21 53 24 71 6 9 -9 12 -105 12
-370 l0 -359 -24 -47 c-31 -61 -94 -125 -153 -153 l-46 -22 6 -216 c4 -119 9
-488 12 -821 3 -333 8 -624 11 -647 l5 -43 -110 0 -110 0 4 32 c2 18 7 255 9
526 l6 492 -717 0 -716 0 7 -525 7 -525 -97 0 -97 0 6 313 c4 171 10 562 13
868 l7 556 -48 24 c-87 43 -163 147 -201 274 -25 83 -25 267 0 350 38 129 120
240 208 284 59 29 165 29 225 0z m-1109 -3126 l3 -93 84 0 85 0 0 90 c0 87 1
90 25 96 14 3 36 3 50 0 l25 -6 -2 -228 -3 -227 -45 0 -45 0 -3 98 -3 97 -84
0 -84 0 -3 -97 -3 -98 -39 -3 c-24 -2 -42 2 -47 10 -15 22 -11 432 3 446 7 7
29 12 48 10 l35 -3 3 -92z m715 67 c63 -43 82 -90 82 -201 0 -89 -2 -99 -30
-145 -52 -83 -142 -116 -253 -94 -45 10 -65 20 -93 50 -83 87 -78 281 8 365
46 45 79 55 174 52 62 -2 82 -6 112 -27z m477 16 c6 -8 10 -25 8 -38 -3 -21
-9 -23 -65 -26 l-63 -3 -2 -192 -3 -192 -45 0 -45 0 -3 192 -2 192 -63 3 c-56
3 -62 5 -65 26 -7 51 -4 52 171 52 131 0 167 -3 177 -14z m438 -10 c51 -26 72
-62 72 -123 0 -99 -51 -150 -160 -160 l-60 -6 0 -78 0 -79 -45 0 -45 0 0 229
c0 174 3 231 13 235 24 11 194 -2 225 -18z m422 10 c6 -8 10 -25 8 -38 -3 -22
-8 -23 -90 -26 l-88 -3 0 -54 0 -54 73 -3 72 -3 0 -35 0 -35 -72 -3 -73 -3 0
-59 0 -59 88 -3 87 -3 0 -35 0 -35 -124 -3 c-82 -2 -128 1 -137 9 -11 9 -14
55 -14 225 0 192 2 214 18 223 9 6 67 11 128 11 85 0 114 -3 124 -14z m364
-11 c50 -24 70 -60 70 -125 1 -94 -53 -146 -160 -157 l-54 -6 0 -66 c0 -83 -7
-93 -56 -89 l-39 3 -3 220 c-2 201 -1 221 15 233 24 19 179 9 227 -13z m392
-1 c96 -45 91 -209 -7 -260 -18 -9 -59 -19 -91 -21 l-58 -6 0 -78 0 -79 -45 0
-45 0 0 225 c0 202 2 225 18 235 26 16 183 5 228 -16z m414 6 c6 -12 8 -30 5
-40 -6 -18 -16 -20 -91 -20 l-84 0 0 -55 0 -54 73 -3 72 -3 0 -35 0 -35 -72
-3 -73 -3 0 -59 0 -60 85 0 c82 0 85 -1 91 -25 13 -53 6 -56 -138 -53 l-133 3
-3 220 c-2 198 -1 221 15 232 11 9 55 13 130 13 103 0 113 -2 123 -20z m318 9
c89 -19 131 -93 99 -172 -9 -20 -30 -45 -47 -56 -25 -15 -28 -20 -15 -25 17
-6 95 -162 95 -190 0 -12 -10 -16 -44 -16 -50 0 -55 4 -86 83 -31 79 -55 107
-91 107 l-29 0 0 -95 0 -95 -45 0 -45 0 0 229 c0 174 3 231 13 234 22 10 145
7 195 -4z"/>
<path d="M1293 1135 c-52 -37 -69 -177 -29 -253 28 -55 113 -66 170 -21 56 44
60 207 6 261 -23 23 -37 28 -77 28 -27 0 -58 -7 -70 -15z"/>
<path d="M2260 1075 l0 -75 44 0 c54 0 76 24 76 82 0 45 -27 68 -82 68 l-38 0
0 -75z"/>
<path d="M3050 1075 l0 -75 38 0 c49 0 76 27 76 77 0 44 -32 73 -80 73 l-34 0
0 -75z"/>
<path d="M3430 1075 l0 -75 43 0 c54 0 81 25 81 77 0 46 -32 73 -85 73 l-39 0
0 -75z"/>
<path d="M4200 1084 l0 -67 47 6 c112 12 110 127 -2 127 l-45 0 0 -66z"/>
</g>
</svg>
